Patient4_TMGait_0pt7_02_left_50_EMG.mot
version=1
nRows=23
nColumns=33
inDegrees=no
endheader
time	1LAddLong	2LGlutMax	3LGlutMed	4LIliopsoas	5LSemiMemb	6LBicFemLong	7LRecFem	8LVastMed	9LVastLat	10LGasMed	11LTibAnt	12lTibPost	13LPeroneusLong	14LSol	15LExtDigLong	16LFlexDigLong	17RAddLong	18RGlutMax	19RGlutMed	20RIliopsoas	21RSemiMemb	22RBicFemLong	23RRecFem	24RVastMed	25RVastLat	26RGasMed	27RTibAnt	28RTibPost	29RPeroneusLong	30RSol	31RExtDigLong	32RFlexDigLong
58.065	0.012817	-0.31982	0.15335	0.036926	0.016174	-0.002899	-0.29037	-0.005188	0.007629	-0.1358	0.004425	0.032349	0.051727	-0.47318	0.022125	-0.052643	0.066681	0.025482	0.9407	0.053558	-0.23377	0.070648	-0.13153	-0.006409	0.007172	-0.000458	0.48492	0.008392	-0.056152	-0.047455	-0.000763	-0.006409
58.066	0.01297	-0.3038	0.12116	0.015717	-0.003204	0.037079	-0.29526	0.003967	-0.016022	-0.5629	0.001068	0.048523	0.075378	-0.29159	0.048828	-0.039673	0.13245	0.074158	0.73837	-0.013885	-0.32913	-0.014648	-0.049133	-0.466	0.22583	-0.002747	0.52963	0.00824	0.000763	-0.064087	-0.002899	-0.002136
58.067	0.006561	-0.32288	0.11887	0.002747	0.002441	-0.008545	-0.26611	0.009308	-0.037384	-0.68588	-0.002289	0.056763	0.10376	0.001984	0.039368	-0.0177	0.15366	0.14969	0.45609	0.000305	-0.85266	-0.12207	-0.018158	-0.64896	0.37064	0.004425	0.56824	0.01297	-0.047455	-0.073395	-0.002441	-0.002441
58.068	0.011292	-0.31845	0.089569	-0.001068	0.016785	-0.010681	-0.26901	0.012512	-0.050201	-0.65903	0.002899	0.066681	0.078888	0.11673	-0.021973	0.02243	0.049286	0.20325	0.51239	-0.045013	-1.0024	-0.27542	-0.06134	-0.5098	0.40329	0.003967	0.30304	0.006561	-0.071716	-0.065308	-0.002136	-0.000305
58.069	0.014343	-0.31784	0.11292	-0.004883	0.019836	0.007324	-0.27023	0.015869	-0.046082	-0.37308	0.01358	0.070648	0.027161	-0.002136	-0.045319	0.059357	-0.028839	0.17029	0.63736	-0.037384	-0.1683	-0.3183	0.005188	-0.51407	0.30273	0.007477	-0.12344	0.004578	0.024109	-0.11887	0.00061	-0.005188
58.07	0.008698	-0.31204	0.1033	-0.02182	0.010376	0.03479	-0.26779	0.009308	-0.049438	-0.37216	0.011597	0.06546	0.033264	0.078888	-0.041046	0.024261	-0.041046	0.13931	0.72647	-0.042725	0.38986	-0.31982	-0.047455	-0.73502	0.11658	0.001221	-0.39749	0.003967	0.043182	-0.16373	-0.001678	-0.003357
58.071	0.006256	-0.3183	0.12482	-0.034485	-0.004272	0.052643	-0.24857	0.01297	-0.062866	-0.50583	0.00351	0.06546	0.018768	0.15503	-0.035248	-0.037537	-0.059814	-0.037079	1.0306	-0.033264	0.31296	-0.072479	-0.039673	-0.49667	-0.082245	-0.015106	-0.30289	0.002594	0.001526	-0.14648	-0.002289	-0.000153
58.072	0.014496	-0.33066	0.11047	-0.033112	-0.007172	0.021667	-0.25375	0.007935	-0.047607	-0.43121	0.000305	0.08194	-0.039825	0.19012	-0.013123	-0.063934	-0.15778	-0.049591	0.98892	0.040283	0.62759	0.000305	-0.11948	0.037384	-0.09201	-0.024872	0.016785	0.002747	0.059204	-0.10696	-0.001526	-0.003662
58.073	-0.005951	-0.35584	0.10513	-0.017853	-0.008698	0.015411	-0.23743	0.01297	-0.06958	-0.2829	0.001526	0.09079	-0.1088	0.22934	0.006409	-0.010986	-0.13306	-0.18585	0.63492	0.007477	0.09964	0.31128	-0.090027	0.49683	-0.34485	-0.030212	-0.38788	0.003357	0.20004	-0.078888	-0.004883	0.002747
58.074	0.006866	-0.37064	0.090027	-0.000305	0.000305	-0.009918	-0.24262	0.013123	-0.064545	-0.2446	0.016022	0.066833	-0.15823	0.31006	0.028839	-0.000763	-0.059204	-0.21622	0.69336	-0.055389	-0.57037	0.84549	0.067444	0.41702	-0.51361	-0.02182	-0.68176	0.002747	0.14954	0.005798	-0.001526	-0.007477
58.075	0.009766	-0.37567	0.11124	0.009308	0.018616	-0.040283	-0.2562	0.002441	-0.061035	-0.28671	0.012054	0.010223	-0.15106	0.27695	0.028992	-0.001526	-0.025024	-0.27924	0.86716	-0.112	-0.27802	0.6221	0.27023	0.54413	-0.17838	-0.003815	-0.56641	-0.000305	0.10269	0.10757	0.003967	-0.01297
58.076	0.007629	-0.34592	0.095062	0.008392	0.041809	-0.041656	-0.25589	0.010834	-0.059662	-0.29968	0.013428	0.050964	-0.1297	0.089417	0.019989	0.002747	0.06546	-0.33356	0.93552	-0.19424	0.042725	0.096741	0.46173	0.48828	0.36407	0.044861	-0.20554	-0.000305	0.097656	0.035706	-0.007172	0.001678
58.077	0.007019	-0.39093	0.072632	-0.00824	0.042877	-0.041962	-0.2739	0.019989	-0.069275	-0.34744	0.011139	0.053558	-0.11963	0.071259	0.018463	0.004578	0.088348	-0.32425	0.95276	-0.10193	0.031128	-0.28564	0.49561	0.33966	0.37827	0.038757	-0.032043	0.005493	0.13657	-0.029449	-0.000916	-0.010529
58.078	0.010681	-0.34592	0.066071	0.005493	0.030212	-0.001678	-0.27374	0.013275	-0.063324	-0.34943	0.000153	0.054626	-0.028534	0.15198	0.020752	-0.009003	0.030365	-0.31876	0.93155	-0.006561	0.027924	-0.47989	0.44083	0.18601	-0.020447	0.019531	-0.32257	0.005798	0.22659	0.014343	-0.007782	-0.00824
58.079	-0.002594	-0.34012	0.063782	0.00473	0.021362	0.029449	-0.3157	0.013885	-0.065613	-0.2504	-0.011597	0.050354	0.031891	0.028076	0.025024	-0.004578	-0.053406	-0.31799	0.8725	0.10117	-0.17944	-0.48996	0.17166	-0.021973	-0.55115	0.017395	-0.37491	0.002289	0.30685	0.06012	-0.001373	-0.000763
58.08	0.005646	-0.34103	0.038452	0.007935	0.005951	0.058594	-0.32425	0.011139	-0.081177	0.013123	-0.011444	0.049286	0.058899	-0.029755	0.023193	-0.04364	0.017548	-0.32379	0.86227	0.10193	-0.085144	-0.38788	0.014801	-0.073853	-0.81268	0.003662	-0.18967	0.005035	0.27054	0.087128	-0.000458	-0.002747
58.081	0.008087	-0.3688	0.007477	0.011749	0.005951	0.026703	-0.32944	0.006866	-0.071716	0.32105	0.004425	0.046997	-0.003204	0.010529	0.006866	0.062714	-0.055695	-0.30289	0.63782	0.13748	-0.15533	-0.14435	-0.059814	-0.11154	-0.55695	-0.000458	-0.10437	0.00412	0.056763	0.076447	0.000305	-0.002136
58.082	0.011902	-0.36285	0.021362	-0.021667	0.006561	-0.009308	-0.32135	0.01236	-0.082855	0.29388	0.009155	0.037842	-0.048676	-0.11444	-0.035706	-0.078735	-0.13886	-0.23086	0.44754	0.097809	0.078278	-0.33981	-0.025177	-0.11826	0.04303	-0.002136	-0.12695	-0.001526	-0.019073	0.12177	0.002289	-0.007477
58.083	0.010223	-0.35278	-0.00061	-0.054474	-0.001678	-0.064392	-0.3302	0.018311	-0.083466	0.20844	0.012512	0.028839	-0.014191	-0.018005	-0.020447	0.004425	-0.12207	-0.42969	0.40604	0.068665	0.69946	-0.28198	0.28168	-0.12665	0.092163	-0.00412	-0.20386	0.004883	0.24185	0.12772	-0.001678	-0.001526
58.084	0.018616	-0.3215	-0.028076	-0.031433	-0.006256	-0.071716	-0.35675	0.011139	-0.080566	0.20477	0.005493	0.045776	0.031433	0.13367	-0.016174	0.26581	-0.056305	-0.43259	0.97595	0.072327	0.45456	-0.28198	0.7312	0.11597	0.066528	-0.003052	-0.25192	0.001068	0.60944	0.024719	0.001068	-0.007935
58.085	0.010681	-0.31433	-0.001831	0.010681	0.000916	-0.028992	-0.35843	0.007782	-0.08606	0.087433	0.005493	0.05249	0.11704	0.27893	-0.030975	0.025635	-0.025024	-0.51056	1.4258	0.072632	0.17349	-0.39856	0.77988	0.13992	0.17227	-0.00061	-0.08316	0.007782	0.03952	-0.030212	-0.001068	-0.000916
58.086	0.013885	-0.27802	-0.016327	0.027618	-0.005798	-0.021057	-0.36636	0.010223	-0.084229	-0.083313	0.005646	0.059814	0.10681	0.24475	-0.009003	-0.14053	-0.01358	-0.6575	0.96024	0.040131	0.13077	-0.27329	0.52902	0.25375	0.11032	-0.011902	-0.02655	0.003357	-0.22263	-0.010071	-0.002899	-0.002136
58.087	0.024109	-0.28336	0.000763	0.027466	-0.000153	0.003204	-0.34607	0.009766	-0.076141	-0.17029	0.001678	0.042114	0.13473	0.19501	-0.000916	-0.046539	-0.022278	-0.50995	0.70435	0.058594	0.14511	-0.001373	-0.003815	0.23071	0.035858	-0.005646	-0.059814	0.001068	-0.095673	-0.041809	-0.00061	-0.004272
